<svg width="1512" height="533" viewBox="0 0 1512 533" fill="none" xmlns="http://www.w3.org/2000/svg">
<g clip-path="url(#clip0_317_1110)">
<rect width="1512" height="533" fill="#19144E"/>
<path d="M196.215 460.157C193.829 474.516 191.666 489.42 188.452 504.246C186.513 512.56 184.273 521.38 180.028 528.729C174.254 538.873 163.837 543.914 153.352 539.172C146.451 536.017 139.9 528.131 137.253 521.063C134.401 513.187 134.84 503.705 136.272 495.09C144.358 443.095 151.919 391.061 161.844 339.203C167.163 310.261 190.354 296.917 216.725 308.388C240.526 318.876 263.003 332.965 284.633 347.784C316.328 369.429 346.816 393.098 377.606 416.262C380.117 418.034 380.856 422.317 382.706 425.89C371.206 449.088 350.694 451.266 329.228 444.917C314.5 440.388 300.609 431.693 287.204 423.563C274.063 415.452 261.846 405.56 250.058 397.021C238.716 403.844 244.556 410.62 247.32 416.111C280.325 480.668 333.513 526.108 392.445 565.367C403.766 573.078 417.988 577.305 431.5 580.422C583.326 614.415 731.574 604.005 875.155 542.505C936.859 515.896 981.811 469.279 1019.39 415.244C1026.17 405.704 1027.67 392.6 1032.21 381.308C1036.47 370.259 1045.55 365.383 1056.89 365.696C1070.09 365.882 1082.46 373.672 1084.76 385.471C1086.65 395.654 1087.67 406.83 1084.84 416.4C1081.22 429.61 1075.46 443.19 1067.48 454.491C1021.86 520.88 965.24 575.088 888.767 604.83C784.528 645.463 676.661 667.326 564.221 658.191C511.671 654.029 459.345 650.411 408.12 635.511C377.085 626.337 349.634 611.614 325.542 590.797C284.045 555.211 244.505 518.183 214.925 471.588C212.064 467.411 208.111 463.682 204.403 460.235C203.41 459.369 200.986 459.982 196.215 460.157Z" fill="#7B61FF" fill-opacity="0.08"/>
</g>
<defs>
<clipPath id="clip0_317_1110">
<rect width="1512" height="533" fill="white"/>
</clipPath>
</defs>
</svg>
