<svg width="82" height="87" viewBox="0 0 82 87" fill="none" xmlns="http://www.w3.org/2000/svg">
<rect x="15.271" y="0.149475" width="67.3992" height="67.3992" rx="6.73992" transform="rotate(10.1994 15.271 0.149475)" fill="white"/>
<path d="M44.4136 39.6346L37.6817 29.9489L40.4485 28.0258L49.1034 40.4784L36.6509 49.1334L34.7278 46.3666L44.4136 39.6346Z" fill="white"/>
<rect x="0.488983" y="17.7157" width="68.9305" height="68.9305" rx="6.89305" fill="#19144E"/>
<path d="M38.4008 54.7658H42.7089L44.4322 47.8728H38.4008V44.4262C38.4008 42.6513 38.4008 40.9797 41.8473 40.9797H44.4322V35.1896C43.8704 35.1155 41.7491 34.9483 39.5088 34.9483C34.8302 34.9483 31.5077 37.8037 31.5077 43.0476V47.8728H26.3379V54.7658H31.5077V69.4135H38.4008V54.7658Z" fill="white"/>
</svg>
