<svg width="82" height="87" viewBox="0 0 82 87" fill="none" xmlns="http://www.w3.org/2000/svg">
<rect x="15.1204" y="0.149475" width="67.3992" height="67.3992" rx="6.73992" transform="rotate(10.1994 15.1204 0.149475)" fill="white"/>
<path d="M44.263 39.6346L37.5311 29.9489L40.2979 28.0258L48.9528 40.4784L36.5002 49.1334L34.5772 46.3666L44.263 39.6346Z" fill="white"/>
<rect x="0.338362" y="17.7157" width="68.9305" height="68.9305" rx="6.89305" fill="#19144E"/>
<path d="M34.8036 47.0111C33.4325 47.0111 32.1175 47.5558 31.148 48.5253C30.1785 49.4949 29.6338 50.8098 29.6338 52.1809C29.6338 53.552 30.1785 54.867 31.148 55.8365C32.1175 56.806 33.4325 57.3507 34.8036 57.3507C36.1747 57.3507 37.4897 56.806 38.4592 55.8365C39.4287 54.867 39.9734 53.552 39.9734 52.1809C39.9734 50.8098 39.4287 49.4949 38.4592 48.5253C37.4897 47.5558 36.1747 47.0111 34.8036 47.0111ZM34.8036 43.5646C37.0888 43.5646 39.2804 44.4724 40.8963 46.0883C42.5121 47.7041 43.4199 49.8957 43.4199 52.1809C43.4199 54.4661 42.5121 56.6577 40.8963 58.2736C39.2804 59.8894 37.0888 60.7972 34.8036 60.7972C32.5184 60.7972 30.3268 59.8894 28.711 58.2736C27.0951 56.6577 26.1873 54.4661 26.1873 52.1809C26.1873 49.8957 27.0951 47.7041 28.711 46.0883C30.3268 44.4724 32.5184 43.5646 34.8036 43.5646ZM46.0048 43.1338C46.0048 43.7051 45.7779 44.253 45.3739 44.657C44.9699 45.0609 44.422 45.2879 43.8507 45.2879C43.2794 45.2879 42.7315 45.0609 42.3276 44.657C41.9236 44.253 41.6967 43.7051 41.6967 43.1338C41.6967 42.5625 41.9236 42.0146 42.3276 41.6106C42.7315 41.2067 43.2794 40.9797 43.8507 40.9797C44.422 40.9797 44.9699 41.2067 45.3739 41.6106C45.7779 42.0146 46.0048 42.5625 46.0048 43.1338ZM34.8036 38.3948C30.5403 38.3948 29.8441 38.4069 27.8606 38.4948C26.5095 38.5585 25.6031 38.7395 24.7622 39.0669C24.0143 39.3564 23.4749 39.7028 22.901 40.2784C22.3617 40.7995 21.947 41.4357 21.6879 42.1395C21.3604 42.9839 21.1795 43.8886 21.1175 45.2379C21.0278 47.1404 21.0175 47.8056 21.0175 52.1809C21.0175 56.4443 21.0296 57.1405 21.1175 59.1239C21.1812 60.4733 21.3622 61.3814 21.6879 62.2206C21.9808 62.9703 22.3255 63.5096 22.8976 64.0818C23.4783 64.6608 24.0177 65.0072 24.7587 65.2932C25.61 65.6224 26.5164 65.805 27.8606 65.8671C29.7631 65.9567 30.4282 65.967 34.8036 65.967C39.067 65.967 39.7631 65.955 41.7466 65.8671C43.0942 65.8033 44.0024 65.6224 44.8433 65.2967C45.5895 65.0054 46.1323 64.6591 46.7044 64.0869C47.2852 63.5062 47.6316 62.9668 47.9176 62.2258C48.245 61.3763 48.4277 60.4681 48.4897 59.1239C48.5794 57.2215 48.5897 56.5563 48.5897 52.1809C48.5897 47.9176 48.5776 47.2214 48.4897 45.2379C48.426 43.8903 48.245 42.9804 47.9176 42.1395C47.6579 41.4364 47.244 40.8004 46.7062 40.2784C46.1853 39.7387 45.549 39.324 44.8451 39.0652C44.0007 38.7378 43.0942 38.5568 41.7466 38.4948C39.8441 38.4052 39.179 38.3948 34.8036 38.3948ZM34.8036 34.9483C39.4857 34.9483 40.0699 34.9655 41.9069 35.0517C43.7422 35.1379 44.9915 35.4256 46.091 35.853C47.2283 36.2907 48.1865 36.8835 49.1446 37.8399C50.0209 38.7014 50.6989 39.7434 51.1315 40.8936C51.5572 41.9913 51.8467 43.2424 51.9328 45.0776C52.0138 46.9146 52.0362 47.4988 52.0362 52.1809C52.0362 56.863 52.019 57.4472 51.9328 59.2842C51.8467 61.1195 51.5572 62.3688 51.1315 63.4683C50.7001 64.619 50.0219 65.6613 49.1446 66.5219C48.2829 67.3979 47.2409 68.0759 46.091 68.5088C44.9932 68.9345 43.7422 69.224 41.9069 69.3102C40.0699 69.3911 39.4857 69.4135 34.8036 69.4135C30.1215 69.4135 29.5373 69.3963 27.7003 69.3102C25.865 69.224 24.6157 68.9345 23.5162 68.5088C22.3657 68.0771 21.3234 67.399 20.4626 66.5219C19.5862 65.6606 18.9081 64.6185 18.4757 63.4683C18.0483 62.3706 17.7605 61.1195 17.6744 59.2842C17.5934 57.4472 17.571 56.863 17.571 52.1809C17.571 47.4988 17.5882 46.9146 17.6744 45.0776C17.7605 43.2406 18.0483 41.993 18.4757 40.8936C18.9069 39.7427 19.5851 38.7004 20.4626 37.8399C21.3237 36.9632 22.3658 36.2851 23.5162 35.853C24.6157 35.4256 25.8633 35.1379 27.7003 35.0517C29.5373 34.9707 30.1215 34.9483 34.8036 34.9483Z" fill="white"/>
</svg>
