<svg width="82" height="88" viewBox="0 0 82 88" fill="none" xmlns="http://www.w3.org/2000/svg">
<rect x="15.1204" y="0.679504" width="67.3992" height="67.3992" rx="6.73992" transform="rotate(10.1994 15.1204 0.679504)" fill="white"/>
<path d="M44.263 40.1647L37.5311 30.4789L40.2979 28.5559L48.9528 41.0084L36.5002 49.6634L34.5772 46.8966L44.263 40.1647Z" fill="white"/>
<rect x="0.338362" y="18.244" width="68.9305" height="68.9305" rx="6.89305" fill="#19144E"/>
<path d="M34.8036 48.4872C36.3838 46.8725 38.4414 45.8161 40.835 45.8161C43.3487 45.8161 45.7595 46.8147 47.5369 48.5922C49.3144 50.3696 50.313 52.7804 50.313 55.2941V68.2185H46.8664V55.2941C46.8664 53.6945 46.231 52.1603 45.0999 51.0292C43.9688 49.8981 42.4346 49.2627 40.835 49.2627C39.2354 49.2627 37.7013 49.8981 36.5702 51.0292C35.439 52.1603 34.8036 53.6945 34.8036 55.2941V68.2185H31.3571V46.6778H34.8036V48.4872ZM22.7408 43.2312C22.0552 43.2312 21.3977 42.9589 20.913 42.4742C20.4282 41.9894 20.1559 41.3319 20.1559 40.6464C20.1559 39.9608 20.4282 39.3033 20.913 38.8186C21.3977 38.3338 22.0552 38.0615 22.7408 38.0615C23.4263 38.0615 24.0838 38.3338 24.5686 38.8186C25.0533 39.3033 25.3257 39.9608 25.3257 40.6464C25.3257 41.3319 25.0533 41.9894 24.5686 42.4742C24.0838 42.9589 23.4263 43.2312 22.7408 43.2312ZM21.0175 46.6778H24.464V68.2185H21.0175V46.6778Z" fill="white"/>
</svg>
