<svg width="428" height="926" viewBox="0 0 428 926" fill="none" xmlns="http://www.w3.org/2000/svg">
<g clip-path="url(#clip0_317_1195)">
<rect width="428" height="926" fill="#19144E"/>
<path d="M62.6458 872.639C66.93 881.151 71.5431 889.864 75.5703 898.943C77.7567 904.086 79.979 909.613 80.5734 915.138C81.4389 922.73 77.8795 929.418 70.506 930.961C65.6392 931.958 59.1306 930.32 55.0016 927.606C50.4524 924.544 47.0225 919.363 44.452 914.255C28.6448 883.648 12.5446 853.224 -2.23728 821.978C-10.6039 804.625 -3.49918 788.615 14.8709 784.493C31.5026 780.844 48.8254 779.611 65.9823 779.09C91.096 778.29 116.353 779.027 141.575 779.379C143.587 779.346 145.632 781.325 147.989 782.499C150.87 799.203 140.869 808.277 127.07 813.211C117.535 816.505 106.834 817.274 96.6088 818.154C86.5296 818.942 76.2514 818.431 66.7222 818.47C63.3619 826.458 69.0663 827.784 72.6481 829.619C115.028 850.996 160.692 854.473 207.006 852.464C215.969 852.168 225.119 848.91 233.465 845.338C326.848 804.669 401.191 741.91 453.335 653.947C475.674 616.05 481.432 574.047 480.424 530.972C480.326 523.309 476.059 515.803 474.096 508.081C472.078 500.597 474.996 494.511 481.112 490.296C488.162 485.296 497.711 484.635 503.481 489.986C508.412 494.639 513.268 500.153 515.471 506.302C518.658 514.684 520.856 524.089 521.006 533.143C522.528 585.857 513.538 636.378 484.602 681.635C445.195 743.372 396.62 796.589 333.657 835.188C304.272 853.283 275.215 871.58 242.383 883.488C222.435 890.625 202.238 893.445 181.463 891.746C145.784 888.962 110.583 884.661 76.9506 871.455C73.8248 870.353 70.2955 869.908 67.0039 869.518C66.1444 869.444 65.0999 870.704 62.6458 872.639Z" fill="#7B61FF" fill-opacity="0.03"/>
</g>
<defs>
<clipPath id="clip0_317_1195">
<rect width="428" height="926" fill="white"/>
</clipPath>
</defs>
</svg>
