<svg width="82" height="88" viewBox="0 0 82 88" fill="none" xmlns="http://www.w3.org/2000/svg">
<rect x="15.271" y="0.679504" width="67.3992" height="67.3992" rx="6.73992" transform="rotate(10.1994 15.271 0.679504)" fill="white"/>
<path d="M44.4136 40.1647L37.6817 30.4789L40.4485 28.5559L49.1034 41.0084L36.6509 49.6634L34.7278 46.8966L44.4136 40.1647Z" fill="white"/>
<rect x="0.488983" y="18.244" width="68.9305" height="68.9305" rx="6.89305" fill="#19144E"/>
<path d="M40.6402 41.5943C39.3304 41.5941 38.073 42.1081 37.1383 43.0256C36.2037 43.9431 35.6667 45.1909 35.6427 46.5004L35.5945 49.2146C35.5916 49.3603 35.558 49.5038 35.4959 49.6356C35.4337 49.7674 35.3443 49.8846 35.2337 49.9795C35.123 50.0744 34.9936 50.1448 34.8538 50.1861C34.714 50.2274 34.5671 50.2387 34.4227 50.2192L31.7326 49.8539C28.1931 49.3714 24.8017 47.7412 21.5482 45.0305C20.5177 50.7345 22.5304 54.6859 27.378 57.7344L30.3885 59.6265C30.5315 59.7164 30.6504 59.84 30.7346 59.9864C30.8188 60.1329 30.8659 60.2977 30.8717 60.4666C30.8775 60.6354 30.8418 60.8031 30.7678 60.955C30.6937 61.1068 30.5836 61.2383 30.4471 61.3377L27.7037 63.3419C29.3356 63.4435 30.8848 63.3712 32.1703 63.1161C40.3007 61.4928 45.7066 55.3752 45.7066 45.2838C45.7066 44.4601 43.9626 41.5943 40.6402 41.5943ZM32.1962 46.4367C32.2263 44.7755 32.7457 43.1602 33.6895 41.7929C34.6333 40.4255 35.9595 39.367 37.502 38.7498C39.0445 38.1326 40.7348 37.9842 42.3613 38.3231C43.9878 38.662 45.4781 39.4732 46.6457 40.6551C47.871 40.6465 48.9136 40.9567 51.2451 39.5436C50.6678 42.3698 50.3835 43.5967 49.1531 45.2838C49.1531 58.453 41.0589 64.8566 32.8459 66.4954C27.2142 67.619 19.0253 65.7734 16.6782 63.3229C17.8742 63.2299 22.7338 62.7077 25.5427 60.6519C23.1663 59.0854 13.7073 53.5193 19.9231 38.5545C22.8406 41.9614 25.7994 44.2809 28.7979 45.5113C30.7935 46.3298 31.2829 46.3126 32.1979 46.4384L32.1962 46.4367Z" fill="white"/>
</svg>
